<svg width="121" height="120" viewBox="0 0 121 120" fill="none" xmlns="http://www.w3.org/2000/svg">
<g clip-path="url(#clip0_660_4628)">
<mask id="mask0_660_4628" style="mask-type:alpha" maskUnits="userSpaceOnUse" x="0" y="0" width="121" height="120">
<path d="M120.5 59.9975C120.5 93.136 93.6368 119.997 60.5004 119.997C27.3623 119.997 0.5 93.136 0.5 59.9975C0.5 26.8611 27.3623 -2.28882e-05 60.5004 -2.28882e-05C93.6368 -2.28882e-05 120.5 26.8611 120.5 59.9975Z" fill="#F0D681"/>
</mask>
<g mask="url(#mask0_660_4628)">
<path d="M120.5 59.9975C120.5 93.136 93.6368 119.997 60.5004 119.997C27.3623 119.997 0.5 93.136 0.5 59.9975C0.5 26.8611 27.3623 -2.28882e-05 60.5004 -2.28882e-05C93.6368 -2.28882e-05 120.5 26.8611 120.5 59.9975Z" fill="#5346C2"/>
<path d="M87.8357 82.2629C84.5583 85.77 79.0114 88.0857 70.1488 86.6663C67.7422 86.2835 65.318 83.8035 61.0853 83.8035C58.5623 83.8035 54.2338 86.2835 51.8272 86.6663C42.3434 88.183 36.6069 85.4 33.4035 81.4655C28.0926 91.7028 14.0584 130.266 44.3413 139.515C46.8788 140.29 60.5 139.515 60.5 139.515H60.6324C60.6324 139.515 76.801 140.453 80.1214 139.515C107.283 131.86 93.6968 93.926 87.8357 82.2629Z" fill="#C3633A"/>
<path d="M96.4003 117.994C94.2441 118.582 90.9411 120.214 88.7036 124.735C86.3049 129.581 80.7772 131.375 76.0612 129.877C71.35 128.376 69.5558 111.878 73.7056 104.524C78.7054 95.6692 41.7125 94.8128 48.3044 104.524C53.0459 111.509 50.6616 128.376 45.9488 129.877C41.2354 131.375 35.7083 129.581 33.3072 124.735C31.1722 120.421 28.0684 118.74 25.916 118.083C27.2523 127.453 32.2774 135.823 44.3689 139.515C46.907 140.29 60.5257 139.515 60.5257 139.515H60.6581C60.6581 139.515 76.8283 140.453 80.1472 139.515C91.5711 136.296 95.7847 127.721 96.4003 117.994Z" fill="#864226"/>
<path d="M71.6757 100.902C70.4285 100.224 68.7938 101.889 68.0426 104.602C68.0426 104.602 65.2038 111.841 68.8512 113.822C72.446 115.771 77.0248 109.476 77.0248 109.476C78.8876 107.368 79.3916 105.089 78.1476 104.414L71.6757 100.902Z" fill="#F68A7E"/>
<path d="M48.6893 101.165C49.9062 100.508 51.4994 102.13 52.2347 104.777C52.2347 104.777 55.0065 111.846 51.4436 113.779C47.9362 115.686 43.4662 109.536 43.4662 109.536C41.6464 107.48 41.1543 105.256 42.3697 104.594L48.6893 101.165Z" fill="#F68A7E"/>
<path d="M75.8361 103.836L75.6192 103.284L75.2716 104.34C75.0228 105.102 74.7899 105.82 74.5236 106.495C74.2158 107.292 73.8665 108.04 73.4566 108.775C73.0754 109.464 72.6209 110.182 72.0627 110.983C71.5683 111.694 71.0229 112.424 70.4471 113.198L69.9336 113.892L70.5923 113.659C71.1489 113.464 71.8091 112.965 72.5603 112.168C73.2812 111.396 73.9638 110.445 74.5315 109.423C75.1264 108.364 75.5905 107.188 75.8154 106.196C76.0403 105.19 76.0499 104.374 75.8361 103.836Z" fill="#E0594F"/>
<path d="M71.792 105.011C72.2114 104.423 72.6867 103.836 73.1859 103.215L73.886 102.346L73.3055 102.464C72.7377 102.579 72.0583 103.032 71.3391 103.769C70.6294 104.494 69.8989 105.526 69.3327 106.598C68.7857 107.635 68.3615 108.721 68.1047 109.754C67.8463 110.815 67.7873 111.642 67.9293 112.215L68.0951 112.89L68.3758 112.132C68.7315 111.169 69.0409 110.339 69.371 109.521C69.7362 108.617 70.0919 107.842 70.4603 107.151C70.859 106.403 71.2928 105.705 71.792 105.011Z" fill="#E0594F"/>
<path d="M48.2882 110.983C47.7305 110.182 47.2739 109.464 46.8951 108.775C46.4872 108.04 46.1363 107.292 45.8274 106.495C45.5614 105.82 45.3271 105.102 45.0791 104.34L44.7333 103.284L44.5159 103.836C44.3041 104.374 44.3097 105.19 44.5384 106.196C44.7601 107.188 45.2274 108.364 45.8199 109.423C46.3869 110.445 47.0696 111.396 47.7922 112.168C48.541 112.965 49.2045 113.464 49.7611 113.659L50.4166 113.892L49.903 113.198C49.3273 112.424 48.7841 111.694 48.2882 110.983Z" fill="#E0594F"/>
<path d="M51.0173 106.6C50.4528 105.526 49.7223 104.494 49.011 103.769C48.2946 103.032 47.6136 102.579 47.046 102.464L46.4648 102.346L47.1656 103.215C47.6659 103.836 48.1382 104.423 48.5587 105.011C49.0589 105.705 49.4927 106.403 49.8898 107.151C50.2582 107.842 50.6138 108.617 50.9791 109.521C51.3124 110.339 51.6186 111.169 51.9759 112.132L52.2565 112.89L52.4224 112.215C52.5643 111.642 52.5053 110.815 52.247 109.754C51.9902 108.721 51.566 107.635 51.0173 106.6Z" fill="#E0594F"/>
<path d="M91.3586 68.0687C92.0013 68.174 92.7493 66.8885 92.7493 66.8885C90.18 66.5663 88.145 63.2459 88.145 63.2459C89.751 63.997 90.8227 63.7849 90.8227 63.7849C87.9392 62.5346 84.7128 56.7134 84.0781 55.5332C83.7049 54.1871 83.2647 52.6178 82.6268 50.68C79.9761 42.6133 63.0994 41.2608 61.0851 41.272C54.4745 41.3071 42.0011 42.6133 39.3503 50.68C38.7492 52.4998 38.3231 54.0324 37.9649 55.3705C37.6534 55.9622 34.1996 62.4548 31.1351 63.7849C31.1351 63.7849 32.206 63.997 33.812 63.2459C33.812 63.2459 31.7761 66.5663 29.2056 66.8885C29.2056 66.8885 29.9265 68.1213 30.56 68.0703L30.5388 68.1213C30.0965 68.5217 27.1578 71.327 27.6538 74.5486C27.6538 74.5486 28.5098 72.4593 29.3664 72.0861C29.3664 72.0861 28.9396 78.5676 30.7593 80.2247C30.7593 80.2247 30.641 78.4432 30.9836 77.2295C33.1741 83.0476 39.1572 88.6933 51.827 86.6663C54.2336 86.2835 58.5621 83.8035 61.0851 83.8035C65.3179 83.8035 67.742 86.2835 70.1486 86.6663C82.933 88.7093 88.8244 82.9901 90.9455 77.1323C91.3235 78.3427 91.1975 80.2247 91.1975 80.2247C93.0172 78.5676 92.5898 72.0861 92.5898 72.0861C93.4463 72.4593 94.3043 74.5486 94.3043 74.5486C94.8386 71.0686 91.3586 68.0687 91.3586 68.0687Z" fill="#C3633A"/>
<path d="M78.2317 62.0733C78.7947 64.3332 77.8649 66.5101 77.4901 66.6042C76.7884 66.7813 74.0963 66.6345 73.4902 63.2343C72.9464 60.1722 74.9766 58.5375 75.4503 58.4194C76.1345 58.2504 77.6671 59.8118 78.2317 62.0733Z" fill="#1E1612"/>
<path d="M43.7247 62.0733C43.1635 64.3332 44.0917 66.5101 44.4668 66.6042C45.1713 66.7813 47.8626 66.6345 48.4654 63.2343C49.0109 60.1722 46.9805 58.5375 46.507 58.4194C45.8248 58.2504 44.2892 59.8118 43.7247 62.0733Z" fill="#1E1612"/>
<path d="M88.2635 74.7483C85.5666 72.9158 76.2639 78.5058 66.5799 69.8186H61.1175H60.8416H55.3777C45.6923 78.5058 36.3892 72.9158 33.6936 74.7483C29.9438 77.2953 37.7281 89.5788 45.369 89.5788C46.372 89.5788 51.3602 89.842 55.5738 87.9042C57.0076 87.2408 58.7014 85.3349 60.8416 85.2775V85.2887L60.9772 85.2759L61.1175 85.2887V85.2775C63.2562 85.3349 65.0202 87.0749 66.3853 87.9042C68.6341 89.2646 75.586 89.5788 76.5892 89.5788C84.2285 89.5788 92.013 77.2953 88.2635 74.7483Z" fill="white"/>
<path d="M67.023 86.1699C65.6594 86.1699 64.4505 85.2912 63.61 84.6803C63.35 84.4921 63.1251 84.3263 62.9672 84.2481C61.9577 83.7123 61.2049 83.8622 61.173 83.8686L60.8222 83.7856L60.6675 83.4619V74.7333C60.6675 74.5052 60.8525 74.3154 61.0837 74.3154C61.3118 74.3154 61.5 74.5052 61.5 74.7333V83.0153C61.929 83.0169 62.5957 83.1094 63.3564 83.5113C63.5669 83.6198 63.8125 83.8016 64.0996 84.0089C64.9544 84.6293 66.2447 85.5687 67.5094 85.2848C68.369 85.095 69.1617 84.3566 69.8634 83.0871C69.9734 82.8877 70.227 82.816 70.428 82.9244C70.6289 83.036 70.7023 83.2912 70.5906 83.4906C69.7677 84.9754 68.7917 85.8494 67.6896 86.0982C67.4631 86.1492 67.2415 86.1699 67.023 86.1699Z" fill="#312621"/>
<path d="M55.144 86.1699C54.9239 86.1699 54.7006 86.1492 54.4757 86.0982C53.3737 85.8494 52.3977 84.9754 51.5731 83.4906C51.4631 83.2912 51.5364 83.0376 51.7374 82.9244C51.9383 82.816 52.1919 82.8877 52.302 83.0871C53.0037 84.3566 53.7947 85.095 54.656 85.2848C55.9207 85.5655 57.2125 84.6293 58.0657 84.0089C58.3528 83.8016 58.5968 83.6198 58.8105 83.5113C59.5697 83.1094 60.2379 83.0169 60.667 83.0153V74.7333C60.667 74.5052 60.852 74.3154 61.0832 74.3154C61.3113 74.3154 61.4995 74.5052 61.4995 74.7333V83.4619L61.3416 83.7888L60.9875 83.867C60.962 83.8622 60.2092 83.7123 59.1981 84.2481C59.0402 84.3263 58.8153 84.4921 58.5538 84.6803C57.7165 85.2912 56.5044 86.1699 55.144 86.1699Z" fill="#312621"/>
<path d="M55.1621 70.1022C55.446 73.0303 59.1811 74.9648 61.0104 74.9648C63.2767 74.9648 66.6658 72.8214 66.9481 69.89C66.9481 69.89 63.9848 67.7466 60.5192 67.7466C57.6118 67.7466 55.1621 70.1022 55.1621 70.1022Z" fill="#F68A7E"/>
<path d="M79.1253 56.8204C79.1253 56.8204 80.4778 37.3106 91.4089 41.6789C93.1935 42.3918 93.8378 51.1061 88.9799 54.106C84.1236 57.1059 81.2688 56.393 80.4124 57.6753C80.4124 57.6753 78.9116 58.3212 79.1253 56.8204Z" fill="#C3633A"/>
<path d="M92.389 43.2196C90.4225 43.3424 87.7831 45.4524 85.8517 48.6596C84.1261 51.524 83.4387 54.4728 83.8868 56.3516C85.2265 55.9816 87.7081 55.2718 89.767 53.9992C93.5341 51.6755 93.2056 46.0249 92.389 43.2196Z" fill="#F68A7E"/>
<path d="M42.8317 56.8204C42.8317 56.8204 41.4779 37.3106 30.5469 41.6789C28.7621 42.3918 28.1186 51.1061 32.9748 54.106C37.8322 57.1059 40.6873 56.393 41.5439 57.6753C41.5439 57.6753 43.0447 58.3212 42.8317 56.8204Z" fill="#C3633A"/>
<path d="M29.5677 43.2196C31.535 43.3424 34.1733 45.4524 36.1071 48.6596C37.831 51.524 38.5176 54.4728 38.0708 56.3516C36.7302 55.9816 34.2481 55.2718 32.1898 53.9992C28.4239 51.6755 28.7528 46.0249 29.5677 43.2196Z" fill="#F68A7E"/>
</g>
</g>
<defs>
<clipPath id="clip0_660_4628">
<rect width="120" height="119.997" fill="white" transform="translate(0.5)"/>
</clipPath>
</defs>
</svg>
